<svg width="14" height="20" viewBox="0 0 14 20" fill="none" xmlns="http://www.w3.org/2000/svg">
<path d="M4.3042 11.6426C4.45967 11.0946 4.7706 10.7032 5.31473 10.7032H9.12278L9.66691 9.0591H5.7034C5.237 8.74596 5.15926 8.27629 5.39246 7.65001L6.55845 3.42246C6.79165 2.79618 7.25718 2.48304 7.87905 2.40477H11.2993H12.6985L13.0863 1.15221L13.3195 0.369307H13.0863H11.377H6.6362C5.54793 0.291044 4.61512 0.682449 4.14872 1.93502L1.35032 12.8952L0.262939 17.201C-0.0479948 18.1404 0.185208 18.9233 1.35032 19.2364C1.42806 19.2364 1.58353 19.3147 1.66126 19.3147H8.18997L8.73412 17.3575H3.68232C3.29366 17.0443 2.98273 17.0443 3.13819 16.1049L4.3042 11.6426Z" fill="#1D1D1B"/>
</svg>
