<svg width="14" height="20" viewBox="0 0 14 20" fill="none" xmlns="http://www.w3.org/2000/svg">
<path d="M5.97188 7.64912L7.05997 3.42167C7.29317 2.79538 7.75948 2.48224 8.38126 2.40398H12.1118H13.1999L13.8217 0.446777H12.1896L7.05997 0.525041C5.97188 0.446777 5.11699 0.83827 4.57294 2.09084L1.7749 13.051L0.686808 17.3567C0.375963 18.2961 0.609075 19.079 1.7749 19.3922C1.85263 19.3922 2.0081 19.4704 2.08583 19.4704H8.61437L9.15842 17.5133H4.18428C3.7957 17.2001 3.48477 17.2001 3.64023 16.2607L4.80606 11.6418C4.96152 11.0938 5.27237 10.7024 5.81641 10.7024H9.62482L10.1689 9.05831H6.28272C5.81641 8.74516 5.73868 8.27541 5.97188 7.64912Z" fill="#1D1D1B"/>
</svg>
