<svg width="16" height="20" viewBox="0 0 16 20" fill="none" xmlns="http://www.w3.org/2000/svg">
<path d="M14.4248 0.525391H5.48638L4.01033 5.84889L2.3002 12.1901L0.356873 19.3924H2.3002H4.01033H9.45079C10.7714 19.3142 11.5487 18.6096 11.8596 17.2787L15.9018 2.16936C16.0572 1.22994 15.5131 0.603654 14.4248 0.525391ZM12.637 3.96995L9.29531 15.713C9.21758 16.6524 8.59571 17.2787 7.35198 17.357H4.1658C4.08807 17.357 4.01033 17.357 3.9326 17.2787C3.62166 17.1222 3.62167 16.7307 3.77713 16.3393L3.9326 15.7912L7.89611 2.24771H11.7819C12.7924 2.32598 12.9479 2.95226 12.637 3.96995Z" fill="#1D1D1B"/>
</svg>
