<svg width="25" height="53" viewBox="0 0 25 53" fill="none" xmlns="http://www.w3.org/2000/svg">
<path d="M22.174 9.86387C21.7076 9.47246 21.2413 9.47246 20.6972 9.94213C18.1325 10.8816 13.3137 14.1696 12.1479 13.9348C14.0909 11.2731 16.1894 8.68958 18.5988 6.34098C19.6091 4.93181 18.2878 4.61867 18.1325 3.83581C17.8215 2.81808 17.977 1.72207 18.2878 0.78263C18.7542 -0.000236265 17.8215 -0.15681 17.2775 0.156337C10.982 6.73241 5.61928 13.3085 0.645113 19.9628C-0.132101 20.9805 0.0233421 21.7634 0.567391 22.3897L3.20992 25.756C3.75397 26.6955 4.6089 26.852 5.697 26.1475L14.0132 20.5109C10.6712 25.9909 7.4846 32.1755 5.07523 39.691C3.98713 42.9008 7.01827 47.7545 11.1375 52.8432C11.6038 53.3912 12.5365 52.8432 11.9147 51.7472C7.95093 44.31 11.2152 32.8018 23.9615 15.8136C24.5833 15.1091 24.8165 14.4045 24.3501 13.6999L22.174 9.86387Z" fill="#1D1D1B"/>
</svg>
